<?xml version="1.0" standalone="no"?>
<!DOCTYPE svg PUBLIC "-//W3C//DTD SVG 20010904//EN"
 "http://www.w3.org/TR/2001/REC-SVG-20010904/DTD/svg10.dtd">
<svg version="1.0" xmlns="http://www.w3.org/2000/svg"
 width="369.000000pt" height="369.000000pt" viewBox="0 0 369.000000 369.000000"
 preserveAspectRatio="xMidYMid meet">
<metadata>
Created by potrace 1.14, written by Peter Selinger 2001-2017
</metadata>
<g transform="translate(0.000000,369.000000) scale(0.100000,-0.100000)"
fill="#000000" stroke="none">
<path d="M1757 3567 c-52 -53 -106 -102 -119 -111 -21 -14 -103 -16 -666 -17
-468 -1 -646 -5 -658 -13 -14 -11 -16 -70 -14 -546 1 -294 2 -575 4 -625 1
-49 -1 -100 -5 -112 -12 -34 -83 -109 -191 -203 -21 -18 -38 -38 -38 -46 0 -8
51 -63 112 -124 l113 -110 3 -667 c2 -367 5 -670 8 -673 3 -2 283 -5 622 -6
415 -1 625 -5 642 -12 14 -6 80 -64 147 -130 67 -65 130 -119 140 -119 9 0 72
56 139 124 66 68 125 123 130 124 5 0 18 3 29 5 11 3 280 5 598 6 348 1 580 5
584 11 3 5 7 25 10 45 5 36 13 551 12 747 0 55 0 107 0 115 0 8 0 33 0 55 -1
147 0 272 3 287 11 50 61 117 152 205 106 102 124 127 102 140 -20 12 -132
111 -189 168 -47 47 -75 97 -68 120 1 5 2 17 2 25 -1 79 -1 211 3 395 2 121 5
348 6 504 2 277 2 285 -18 302 -19 15 -74 16 -648 13 l-628 -3 -112 110 -112
111 -95 -95z"/>
</g>
</svg>
